<?xml version="1.0" encoding="utf-8"?>
<!-- Generator: Adobe Illustrator 23.0.1, SVG Export Plug-In . SVG Version: 6.00 Build 0)  -->
<svg version="1.1" id="レイヤー_1" xmlns="http://www.w3.org/2000/svg" xmlns:xlink="http://www.w3.org/1999/xlink" x="0px"
	 y="0px" viewBox="0 0 24 24" style="enable-background:new 0 0 24 24;" xml:space="preserve">
<style type="text/css">
	.st0{fill-rule:evenodd;clip-rule:evenodd;fill:#FF00FF;fill-opacity:0;}
	.st1{fill:#FFFFFF;}
</style>
<title>Design icon menu 24x24</title>
<desc>Created with Sketch.</desc>
<g id="Design-icon-menu-24x24">
	<rect id="btn-bound" y="0" class="st0" width="22" height="24"/>
	<path id="icon_hamburger" class="st1" d="M0.9,4c0-0.6,0.4-1,0.9-1h18.3c0.5,0,0.9,0.4,0.9,1c0,0.6-0.4,1-0.9,1H1.8
		C1.3,5,0.9,4.6,0.9,4z M0.9,12c0-0.6,0.4-1,0.9-1h18.3c0.5,0,0.9,0.4,0.9,1c0,0.6-0.4,1-0.9,1H1.8C1.3,13,0.9,12.6,0.9,12z M0.9,20
		c0-0.6,0.4-1,0.9-1h18.3c0.5,0,0.9,0.4,0.9,1c0,0.6-0.4,1-0.9,1H1.8C1.3,21,0.9,20.6,0.9,20z"/>
</g>
</svg>
