<?xml version="1.0" encoding="UTF-8"?>
<svg width="24px" height="24px" viewBox="0 0 24 24" version="1.1" xmlns="http://www.w3.org/2000/svg" xmlns:xlink="http://www.w3.org/1999/xlink">
    <!-- Generator: Sketch 52.2 (67145) - http://www.bohemiancoding.com/sketch -->
    <title>Design icon cart 24x24</title>
    <desc>Created with Sketch.</desc>
    <g id="Design-icon-cart-24x24" stroke="none" stroke-width="1" fill="none" fill-rule="evenodd">
        <rect id="btn_bound" fill-opacity="0.5" fill="#FF00FF" opacity="0" x="0" y="0" width="24" height="24"></rect>
        <path d="M6.97861105,5 L21,5 L19,14 L8.43940269,14 L8.8158,16.319 C8.8278,16.395 8.8228,16.445 8.7998,16.519 L8.0208,19 L20.0668,19 C20.3368,19 20.5558,19.227 20.5558,19.5 C20.5558,19.773 20.3368,20 20.0668,20 L16.524598,20 C17.3412681,20.0132888 18,20.6871141 18,21.5168 C18,22.3548 17.328,23.0338 16.5,23.0338 C15.672,23.0338 15,22.3548 15,21.5168 C15,20.6871141 15.6587319,20.0132888 16.475402,20 L11.524598,20 C12.3412681,20.0132888 13,20.6871141 13,21.5168 C13,22.3548 12.328,23.0338 11.5,23.0338 C10.672,23.0338 10,22.3548 10,21.5168 C10,20.6871141 10.6587319,20.0132888 11.475402,20 L7.3558,20 C7.1998,20 7.0538,19.948 6.9618,19.821 C6.8698,19.694 6.8428,19.542 6.8888,19.391 L7.9998,16 L5.9408,4.708 L1.3168,2.956 C1.0648,2.86 0.9368,2.576 1.0308,2.32 C1.1258,2.064 1.4088,1.937 1.6608,2.031 L6.5498,3.885 C6.7138,3.948 6.8318,4.093 6.8598,4.268 L6.97861105,5 Z M9,7.9997 L13,7.9997 L13,6.9997 L9,6.9997 L9,7.9997 Z M14,7.9997 L18,7.9997 L18,6.9997 L14,6.9997 L14,7.9997 Z M9,9.9997 L13,9.9997 L13,8.9997 L9,8.9997 L9,9.9997 Z M14,9.9997 L18,9.9997 L18,8.9997 L14,8.9997 L14,9.9997 Z M9,11.9997 L13,11.9997 L13,10.9997 L9,10.9997 L9,11.9997 Z M14,11.9997 L18,11.9997 L18,10.9997 L14,10.9997 L14,11.9997 Z" id="Combined-Shape" fill="#007236" fill-rule="nonzero"></path>
    </g>
</svg>