<?xml version="1.0" encoding="UTF-8"?>
<svg width="36px" height="36px" viewBox="0 0 36 36" version="1.1" xmlns="http://www.w3.org/2000/svg" xmlns:xlink="http://www.w3.org/1999/xlink">
    <!-- Generator: Sketch 52.2 (67145) - http://www.bohemiancoding.com/sketch -->
    <title>Design icon sns_tw 36x36</title>
    <desc>Created with Sketch.</desc>
    <g id="Design-icon-sns_tw-36x36" stroke="none" stroke-width="1" fill="none" fill-rule="evenodd">
        <rect id="btn_bound" fill-opacity="0.5" fill="#FF00FF" opacity="0" x="0" y="0" width="36" height="36"></rect>
        <path d="M18,36 C8.0588745,36 0,27.9411255 0,18 C0,8.0588745 8.0588745,0 18,0 C27.9411255,0 36,8.0588745 36,18 C36,27.9411255 27.9411255,36 18,36 Z M26.4914118,13.9855596 C27.2890658,13.4079422 27.9727692,12.7148014 28.4285714,11.9061372 C27.744868,12.2527076 26.9472141,12.4837545 26.1495601,12.5415162 C27.0041894,12.0216606 27.6309175,11.2129964 27.9157939,10.2888087 C27.1751152,10.7509025 26.320486,11.0974729 25.4088814,11.2707581 C24.6682028,10.4620939 23.6426477,10 22.503142,10 C20.1101801,10 18.05907,12.1949458 18.6288228,14.967509 C15.3242564,14.7942238 12.418517,13.234657 10.4243821,10.7509025 C10.0255551,11.3285199 9.85462924,12.0216606 9.85462924,12.7725632 C9.85462924,14.101083 10.4813574,15.3718412 11.620863,16.1227437 C10.9371596,16.0649819 10.3104315,15.8916968 9.79765396,15.6028881 L9.79765396,15.6606498 C9.79765396,17.6245487 11.1650607,19.2418773 12.9882698,19.6462094 C12.3615417,19.8194946 11.7917889,19.8194946 11.1650607,19.7039711 C11.6778383,21.3212996 13.1591956,22.4765343 14.9254294,22.534296 C13.5580226,23.631769 11.8487641,24.267148 9.96857981,24.267148 C9.62672811,24.267148 9.3418517,24.267148 9,24.2093863 C10.7662338,25.3068592 12.8743192,26 15.1533305,26 C22.4461667,26 26.4914118,19.8772563 26.4914118,14.5054152 C26.4914118,14.33213 26.4914118,14.1588448 26.4914118,13.9855596 Z" id="Twitter" fill="#000000" fill-rule="nonzero"></path>
    </g>
</svg>