<?xml version="1.0" encoding="UTF-8"?>
<svg width="24px" height="24px" viewBox="0 0 24 24" version="1.1" xmlns="http://www.w3.org/2000/svg" xmlns:xlink="http://www.w3.org/1999/xlink">
    <!-- Generator: Sketch 52.2 (67145) - http://www.bohemiancoding.com/sketch -->
    <title>Design icon search 24x24</title>
    <desc>Created with Sketch.</desc>
    <g id="Design-icon-search-24x24" stroke="none" stroke-width="1" fill="none" fill-rule="evenodd">
        <rect id="btn-bound" fill-opacity="0.5" fill="#FF00FF" opacity="0" x="0" y="0" width="24" height="24"></rect>
        <path d="M13.5563492,14.4939773 L13.5563492,16.5563492 L11.5563492,16.5563492 L11.5563492,14.4939773 C9.85381659,14.2806978 8.20673134,13.5204398 6.89949494,12.2132034 C3.7753006,9.0890091 3.7753006,4.02368927 6.89949494,0.899494936 C10.0236893,-2.2246994 15.0890091,-2.2246994 18.2132034,0.899494936 C21.3373978,4.02368927 21.3373978,9.0890091 18.2132034,12.2132034 C16.905967,13.5204398 15.2588818,14.2806978 13.5563492,14.4939773 Z M11.5563492,17.5563492 L13.5563492,17.5563492 L13.5563492,26.5563492 L11.5563492,26.5563492 L11.5563492,17.5563492 Z M7.60660172,11.5060967 C10.3402718,14.2397667 14.7724266,14.2397667 17.5060967,11.5060967 C20.2397667,8.77242661 20.2397667,4.34027176 17.5060967,1.60660172 C14.7724266,-1.12706832 10.3402718,-1.12706832 7.60660172,1.60660172 C4.87293168,4.34027176 4.87293168,8.77242661 7.60660172,11.5060967 Z M8.55634919,6.55634919 L7.55634919,6.55634919 C7.55634919,3.79492544 9.79492544,1.55634919 12.5563492,1.55634919 C15.3177729,1.55634919 17.5563492,3.79492544 17.5563492,6.55634919 L16.5563492,6.55634919 C16.5563492,4.34721019 14.7654882,2.55634919 12.5563492,2.55634919 C10.3472102,2.55634919 8.55634919,4.34721019 8.55634919,6.55634919 Z" id="icon_search" fill="#007236" fill-rule="nonzero" transform="translate(12.556349, 12.556349) rotate(-45.000000) translate(-12.556349, -12.556349) "></path>
    </g>
</svg>