<?xml version="1.0" encoding="UTF-8"?>
<svg width="36px" height="36px" viewBox="0 0 36 36" version="1.1" xmlns="http://www.w3.org/2000/svg" xmlns:xlink="http://www.w3.org/1999/xlink">
    <!-- Generator: Sketch 52.2 (67145) - http://www.bohemiancoding.com/sketch -->
    <title>Design icon sns_in 36x36</title>
    <desc>Created with Sketch.</desc>
    <g id="Design-icon-sns_in-36x36" stroke="none" stroke-width="1" fill="none" fill-rule="evenodd">
        <rect id="btn_bound" fill-opacity="0.5" fill="#FF00FF" opacity="0" x="0" y="0" width="36" height="36"></rect>
        <path d="M18,36 C8.0588745,36 0,27.9411255 0,18 C0,8.0588745 8.0588745,0 18,0 C27.9411255,0 36,8.0588745 36,18 C36,27.9411255 27.9411255,36 18,36 Z M17.6666667,13.3333333 C14.902439,13.3333333 12.6666667,15.5691057 12.6666667,18.3333333 C12.6666667,21.097561 14.902439,23.3333333 17.6666667,23.3333333 C20.4308943,23.3333333 22.6666667,21.097561 22.6666667,18.3333333 C22.6666667,15.5691057 20.4308943,13.3333333 17.6666667,13.3333333 Z M17.6666667,21.6666667 C15.8333333,21.6666667 14.3333333,20.1666667 14.3333333,18.3333333 C14.3333333,16.5 15.8333333,15 17.6666667,15 C19.5,15 21,16.5 21,18.3333333 C20.9583333,20.1666667 19.5,21.6666667 17.6666667,21.6666667 Z M24.6666667,13.3333333 C24.6666667,12.5977011 24.0689655,12 23.3333333,12 C22.5977011,12 22,12.5977011 22,13.3333333 C22,14.0689655 22.5977011,14.6666667 23.3333333,14.6666667 C24.0689655,14.6666667 24.6666667,14.0689655 24.6666667,13.3333333 Z M13,10 L23,10 C24.6568542,10 26,11.3431458 26,13 L26,23 C26,24.6568542 24.6568542,26 23,26 L13,26 C11.3431458,26 10,24.6568542 10,23 L10,13 C10,11.3431458 11.3431458,10 13,10 Z M13,8 C10.2385763,8 8,10.2385763 8,13 L8,23 C8,25.7614237 10.2385763,28 13,28 L23,28 C25.7614237,28 28,25.7614237 28,23 L28,13 C28,10.2385763 25.7614237,8 23,8 L13,8 Z" id="Instagram" fill="#000000" fill-rule="nonzero"></path>
    </g>
</svg>