<?xml version="1.0" encoding="UTF-8"?>
<svg width="36px" height="36px" viewBox="0 0 36 36" version="1.1" xmlns="http://www.w3.org/2000/svg" xmlns:xlink="http://www.w3.org/1999/xlink">
    <!-- Generator: Sketch 52.2 (67145) - http://www.bohemiancoding.com/sketch -->
    <title>Design icon sns_yt 36x36</title>
    <desc>Created with Sketch.</desc>
    <g id="Design-icon-sns_yt-36x36" stroke="none" stroke-width="1" fill="none" fill-rule="evenodd">
        <rect id="btn_bound" fill-opacity="0.5" fill="#FF00FF" opacity="0" x="0" y="0" width="36" height="36"></rect>
        <path d="M18,36 C8.0588745,36 0,27.9411255 0,18 C0,8.0588745 8.0588745,0 18,0 C27.9411255,0 36,8.0588745 36,18 C36,27.9411255 27.9411255,36 18,36 Z M30,18.3381234 C30,18.3381234 30,14.4429417 29.5051546,12.6170752 C29.257732,11.5824176 28.3917526,10.7912088 27.4020619,10.4868977 C25.5463918,10 18,10 18,10 C18,10 10.4536082,10 8.59793814,10.4868977 C7.54639175,10.7303466 6.74226804,11.5824176 6.49484536,12.6170752 C6,14.4429417 6,18.3381234 6,18.3381234 C6,18.3381234 6,22.2333052 6.49484536,24.0591716 C6.74226804,25.0938292 7.60824742,25.885038 8.59793814,26.1284869 C10.4536082,26.6153846 18,26.6153846 18,26.6153846 C18,26.6153846 25.5463918,26.6153846 27.4020619,26.1284869 C28.4536082,25.885038 29.257732,25.0938292 29.5051546,24.0591716 C30,22.2333052 30,18.3381234 30,18.3381234 Z M16,15 L22.2068966,18.7241379 L16,22.4482759 L16,15 Z" id="Youtube" fill="#000000" fill-rule="nonzero"></path>
    </g>
</svg>