<?xml version="1.0" encoding="utf-8"?>
<!-- Generator: Adobe Illustrator 23.0.1, SVG Export Plug-In . SVG Version: 6.00 Build 0)  -->
<svg version="1.1" id="レイヤー_1" xmlns="http://www.w3.org/2000/svg" xmlns:xlink="http://www.w3.org/1999/xlink" x="0px"
	 y="0px" viewBox="0 0 24 24" style="enable-background:new 0 0 24 24;" xml:space="preserve">
<style type="text/css">
	.st0{fill-rule:evenodd;clip-rule:evenodd;fill:#FF00FF;fill-opacity:0;}
	.st1{fill:#FFFFFF;}
</style>
<title>Design icon storelist 24x24</title>
<desc>Created with Sketch.</desc>
<g id="Design-icon-storelist-24x24">
	<rect id="btn_bound" y="0" class="st0" width="24" height="24"/>
	<path id="icon_storelist" class="st1" d="M17.5,19h-11C5.7,19,5,18.3,5,17.5v-5h1v5C6,17.8,6.2,18,6.5,18h11c0.3,0,0.5-0.2,0.5-0.5
		v-5h1v5C19,18.3,18.3,19,17.5,19z M20.6,3L22,9c0,1.4-1.1,2.5-2.5,2.5c-1.4,0-2.5-1.1-2.5-2.5c0,1.4-1.1,2.5-2.5,2.5
		c-1.4,0-2.5-1.1-2.5-2.5c0,1.4-1.1,2.5-2.5,2.5C8.1,11.5,7,10.4,7,9c0,1.4-1.1,2.5-2.5,2.5C3.1,11.5,2,10.4,2,9l1.4-6H20.6z M5,22
		v-1h14v1H5z"/>
</g>
</svg>
