<svg xmlns="http://www.w3.org/2000/svg" xmlns:xlink="http://www.w3.org/1999/xlink" class="svg-symbol"><symbol id="s-logo-white" width="150" height="61.378" viewBox="0 0 150 61.378"><g transform="translate(-30 -30)"><g transform="translate(64.059 72.777)"><path d="M161.646,532.928h1.25a5.46,5.46,0,0,1-.9,3.315,3,3,0,0,1-2.533,1.144,2.821,2.821,0,0,1-2.615-1.456,9.206,9.206,0,0,1-.849-4.5,9.413,9.413,0,0,1,.841-4.592,2.914,2.914,0,0,1,2.715-1.419,3.142,3.142,0,0,1,2.411.906,3.636,3.636,0,0,1,.848,2.579v.141h-1.229a2.8,2.8,0,0,0-.548-1.835,1.833,1.833,0,0,0-1.5-.666,1.729,1.729,0,0,0-1.674,1.131,9.892,9.892,0,0,0-.511,3.758,9.038,9.038,0,0,0,.528,3.653,1.8,1.8,0,0,0,1.741,1.086,1.688,1.688,0,0,0,1.5-.8,4.134,4.134,0,0,0,.525-2.275Z" transform="translate(-155.998 -525.425)" fill="#fff"></path><path d="M177.052,536.608a6.233,6.233,0,0,1,.738-3.4,2.881,2.881,0,0,1,4.533-.011,8.342,8.342,0,0,1,0,6.821,2.939,2.939,0,0,1-4.555.007A6.288,6.288,0,0,1,177.052,536.608Zm1.271,0a6.492,6.492,0,0,0,.394,2.687,1.507,1.507,0,0,0,2.648-.014,6.45,6.45,0,0,0,.4-2.673,6.386,6.386,0,0,0-.4-2.672,1.514,1.514,0,0,0-2.644-.007A6.379,6.379,0,0,0,178.323,536.611Z" transform="translate(-167.843 -529.178)" fill="#fff"></path><path d="M196.116,540.924V532.4h1.1v1.018a2.347,2.347,0,0,1,.918-.916,2.745,2.745,0,0,1,1.335-.311,2.094,2.094,0,0,1,1.194.318,1.621,1.621,0,0,1,.65.923,2.431,2.431,0,0,1,2.221-1.241,2.19,2.19,0,0,1,1.593.54,2.075,2.075,0,0,1,.554,1.554v6.638h-1.23v-5.9a2.563,2.563,0,0,0-.268-1.405,1.085,1.085,0,0,0-.937-.367,1.655,1.655,0,0,0-1.734,1.728v5.941h-1.229v-5.941a2.339,2.339,0,0,0-.287-1.335,1.1,1.1,0,0,0-.949-.393,1.773,1.773,0,0,0-1.274.467,1.585,1.585,0,0,0-.491,1.2v6Z" transform="translate(-178.569 -529.232)" fill="#fff"></path><path d="M223.742,540.924V532.4h1.1v1.018a2.345,2.345,0,0,1,.918-.916,2.745,2.745,0,0,1,1.335-.311,2.094,2.094,0,0,1,1.193.318,1.624,1.624,0,0,1,.651.923,2.43,2.43,0,0,1,2.221-1.241,2.191,2.191,0,0,1,1.594.54,2.076,2.076,0,0,1,.553,1.554v6.638h-1.229v-5.9a2.563,2.563,0,0,0-.269-1.405,1.085,1.085,0,0,0-.937-.367,1.654,1.654,0,0,0-1.733,1.728v5.941h-1.23v-5.941a2.339,2.339,0,0,0-.286-1.335,1.1,1.1,0,0,0-.95-.393,1.772,1.772,0,0,0-1.273.467,1.585,1.585,0,0,0-.492,1.2v6Z" transform="translate(-194.112 -529.232)" fill="#fff"></path><path d="M255.439,541.191v-1.108a1.99,1.99,0,0,1-.8.99,2.435,2.435,0,0,1-1.322.347,2.035,2.035,0,0,1-1.554-.525,2.4,2.4,0,0,1-.489-1.672v-6.557h1.25v6.587a1.171,1.171,0,0,0,.262.815.94.94,0,0,0,.735.289,1.709,1.709,0,0,0,1.337-.533,2.161,2.161,0,0,0,.48-1.5v-5.661h1.209v8.524Z" transform="translate(-209.601 -529.499)" fill="#fff"></path><path d="M269.419,540.951v-8.524h1.127v1.054a2.151,2.151,0,0,1,.842-.93,2.521,2.521,0,0,1,1.292-.311,1.979,1.979,0,0,1,1.6.569,3.1,3.1,0,0,1,.476,1.961v6.181h-1.209v-6.27a1.559,1.559,0,0,0-.294-1.038,1.121,1.121,0,0,0-.9-.341,1.633,1.633,0,0,0-1.261.5,1.925,1.925,0,0,0-.466,1.363v5.781Z" transform="translate(-219.811 -529.259)" fill="#fff"></path><path d="M287.423,527.608v-1.564h1.23v1.564Zm0,9.858v-8.525h1.23v8.525Z" transform="translate(-229.941 -525.773)" fill="#fff"></path><path d="M299.951,537.9h1.167a3.594,3.594,0,0,1-.713,2.388,2.489,2.489,0,0,1-2.011.843,2.305,2.305,0,0,1-2.112-1.118,6.724,6.724,0,0,1-.687-3.436,6.2,6.2,0,0,1,.713-3.329,2.4,2.4,0,0,1,2.162-1.1,2.486,2.486,0,0,1,1.89.73,2.766,2.766,0,0,1,.7,1.989v.178h-1.167a2.438,2.438,0,0,0-.386-1.366,1.159,1.159,0,0,0-.988-.468,1.289,1.289,0,0,0-1.252.775,6.578,6.578,0,0,0-.375,2.635,6.647,6.647,0,0,0,.379,2.665,1.3,1.3,0,0,0,1.265.782,1.165,1.165,0,0,0,1.033-.555A3.073,3.073,0,0,0,299.951,537.9Z" transform="translate(-234.538 -529.205)" fill="#fff"></path><path d="M319.038,540.884c-.154.023-.287.04-.4.052s-.215.017-.309.017a1.019,1.019,0,0,1-.8-.319,1.384,1.384,0,0,1-.313-.907,2.192,2.192,0,0,1-.793,1,2.154,2.154,0,0,1-1.23.349,1.766,1.766,0,0,1-1.441-.623,2.673,2.673,0,0,1-.515-1.75,2.577,2.577,0,0,1,.478-1.683,4.746,4.746,0,0,1,2.066-1.113l.022-.008q1.3-.435,1.3-1.018V534.1a.923.923,0,0,0-.3-.765,1.526,1.526,0,0,0-.957-.241,1.234,1.234,0,0,0-.946.333,1.45,1.45,0,0,0-.311,1.02v.148h-1.125a2.666,2.666,0,0,1,.622-1.9,2.6,2.6,0,0,1,1.9-.6,2.454,2.454,0,0,1,1.776.552,2.36,2.36,0,0,1,.559,1.742v4.98a.76.76,0,0,0,.119.48.476.476,0,0,0,.388.145.956.956,0,0,0,.164-.022.06.06,0,0,0,.03-.008Zm-1.9-4.629a3.323,3.323,0,0,1-1.242.653l-.118.044a2.167,2.167,0,0,0-1.078.653,1.9,1.9,0,0,0-.251,1.076,1.539,1.539,0,0,0,.28.987.957.957,0,0,0,.79.348,1.418,1.418,0,0,0,1.178-.563,2.389,2.389,0,0,0,.44-1.511Z" transform="translate(-244.468 -529.178)" fill="#fff"></path><path d="M331.088,536.506a.932.932,0,0,0,.192.7,1.6,1.6,0,0,0,.917.167c.064,0,.118,0,.16,0s.077-.007.107-.011l.007,1.041c-.074,0-.173.01-.3.014q-.453.022-.586.022a1.965,1.965,0,0,1-1.257-.336,1.236,1.236,0,0,1-.412-1.016v-6.359h-1.188v-.98h1.188v-2.271h1.167v2.271h1.383v.98h-1.383Z" transform="translate(-253.183 -526.578)" fill="#fff"></path><path d="M341.247,527.608v-1.564h1.23v1.564Zm0,9.858v-8.525h1.23v8.525Z" transform="translate(-260.223 -525.773)" fill="#fff"></path><path d="M349.372,536.608a6.229,6.229,0,0,1,.738-3.4,2.881,2.881,0,0,1,4.533-.011,8.345,8.345,0,0,1,0,6.821,2.939,2.939,0,0,1-4.555.007A6.284,6.284,0,0,1,349.372,536.608Zm1.271,0a6.483,6.483,0,0,0,.394,2.687,1.507,1.507,0,0,0,2.648-.014,6.45,6.45,0,0,0,.4-2.673,6.386,6.386,0,0,0-.4-2.672,1.514,1.514,0,0,0-2.644-.007A6.387,6.387,0,0,0,350.643,536.611Z" transform="translate(-264.795 -529.178)" fill="#fff"></path><path d="M368.435,540.951v-8.524h1.127v1.054a2.153,2.153,0,0,1,.841-.93,2.524,2.524,0,0,1,1.293-.311,1.979,1.979,0,0,1,1.6.569,3.1,3.1,0,0,1,.476,1.961v6.181h-1.209v-6.27a1.557,1.557,0,0,0-.294-1.038,1.12,1.12,0,0,0-.9-.341,1.631,1.631,0,0,0-1.26.5,1.925,1.925,0,0,0-.467,1.363v5.781Z" transform="translate(-275.52 -529.259)" fill="#fff"></path><path d="M385.964,538.306h1.172a.224.224,0,0,1-.007.045,2.356,2.356,0,0,0-.02.244,1.362,1.362,0,0,0,.4,1.058,1.642,1.642,0,0,0,1.149.363,1.521,1.521,0,0,0,1.083-.371,1.316,1.316,0,0,0,.4-1.008q0-1.008-1.549-1.542a.132.132,0,0,0-.03-.008,4.934,4.934,0,0,1-2.005-1.077,2.317,2.317,0,0,1-.459-1.552,2.286,2.286,0,0,1,.655-1.739,2.538,2.538,0,0,1,1.824-.624,2.624,2.624,0,0,1,1.872.6,2.323,2.323,0,0,1,.629,1.765v.117h-1.126a1.774,1.774,0,0,0-.349-1.111,1.249,1.249,0,0,0-.975-.348,1.5,1.5,0,0,0-1.052.328,1.267,1.267,0,0,0-.354.976,1.361,1.361,0,0,0,.093.515.871.871,0,0,0,.271.368,4.068,4.068,0,0,0,1.3.594q.52.164.8.275a2.715,2.715,0,0,1,1.262.865,2.309,2.309,0,0,1,.379,1.383,2.6,2.6,0,0,1-.736,1.981,2.925,2.925,0,0,1-2.094.7,2.506,2.506,0,0,1-1.888-.663,2.707,2.707,0,0,1-.639-1.952Z" transform="translate(-285.382 -529.178)" fill="#fff"></path></g><path d="M110.378,470.066a1.157,1.157,0,0,0-.8.28L94.154,483.7c2.5-5.93,7.936-18.794,7.936-18.794a1.159,1.159,0,0,0-.469-1.445l-17.468-10.54,20.327,1.74a1.161,1.161,0,0,0,1.229-.893l4.627-19.87,3.364,14.448,2.377-.026-4.611-19.8a1.16,1.16,0,0,0-2.26,0s-5.108,21.939-5.529,23.744l-24.291-2.079a1.16,1.16,0,0,0-.7,2.15l20.874,12.6-9.484,22.46a1.16,1.16,0,0,0,1.828,1.328l18.43-15.96.042.036Z" transform="translate(-48.127 -397.622)" fill="#fff"></path><g transform="translate(63.588 51.704)"><path d="M154.92,491.417h6.211a2.538,2.538,0,0,0,.922,1.567,3.432,3.432,0,0,0,1.992.476,3.346,3.346,0,0,0,1.744-.386,1.193,1.193,0,0,0,.635-1.066q0-1.084-2.671-1.764-.537-.134-.819-.2-2.2-.566-3.5-1.03a8.858,8.858,0,0,1-1.893-.869,5.37,5.37,0,0,1-1.718-1.966,5.768,5.768,0,0,1-.573-2.614,5.492,5.492,0,0,1,2.223-4.633,12.019,12.019,0,0,1,12.138-.077,6.121,6.121,0,0,1,2.479,4.6h-6.044a1.848,1.848,0,0,0-.775-1.285,3.178,3.178,0,0,0-1.787-.424,2.775,2.775,0,0,0-1.524.334,1.138,1.138,0,0,0-.5,1.015q0,.976,2.616,1.629c.152.045.269.076.35.094q.377.1,1.145.284a17.007,17.007,0,0,1,4.526,1.593,5.713,5.713,0,0,1,1.926,2,5.484,5.484,0,0,1,.607,2.645,6.011,6.011,0,0,1-2.3,5.063,10.591,10.591,0,0,1-6.576,1.768,10.03,10.03,0,0,1-6.253-1.769A6.7,6.7,0,0,1,154.92,491.417Z" transform="translate(-154.92 -477.245)" fill="#fff"></path><path d="M202.179,493.758a1.176,1.176,0,0,0,.432,1.039,2.83,2.83,0,0,0,1.538.3c.216,0,.38,0,.492-.006s.223-.011.331-.02v4.223q-1.079.068-1.962.1t-1.651.035a6.1,6.1,0,0,1-3.875-.932,4.1,4.1,0,0,1-1.1-3.268v-7.3h-2.043v-3.377h2.043v-4.543h5.794v4.543h2.738v3.377h-2.738Z" transform="translate(-177.1 -478.8)" fill="#fff"></path><path d="M230.672,504.33l-.364-1.393a7.549,7.549,0,0,1-2.413,1.461,8.432,8.432,0,0,1-2.911.474,5.536,5.536,0,0,1-3.835-1.219,4.393,4.393,0,0,1-1.355-3.443A3.81,3.81,0,0,1,221.128,497q1.334-1.037,5.041-1.509.471-.067,1.267-.148,2.763-.3,2.763-1.43a.987.987,0,0,0-.507-.924,3.358,3.358,0,0,0-1.6-.29,2.321,2.321,0,0,0-1.392.358,1.491,1.491,0,0,0-.568,1.1h-5.669a4.24,4.24,0,0,1,2.02-3.738,10.9,10.9,0,0,1,5.819-1.264,15.424,15.424,0,0,1,3.334.338,7.083,7.083,0,0,1,2.377.905,4.061,4.061,0,0,1,1.455,1.589,6.115,6.115,0,0,1,.417,2.534v8.159a1.543,1.543,0,0,0,.162.717,1.324,1.324,0,0,0,.471.515v.415Zm-.539-6.5a21.315,21.315,0,0,1-2.23.684q-2.19.577-2.19,1.544a1.172,1.172,0,0,0,.433.966,1.91,1.91,0,0,0,1.229.348,2.415,2.415,0,0,0,2.8-2.8q0-.308-.007-.463A1.624,1.624,0,0,0,230.133,497.828Z" transform="translate(-191.42 -483.948)" fill="#fff"></path><path d="M261.16,504.491V489.86h5.365v2.661a4.61,4.61,0,0,1,1.67-2.339,5.081,5.081,0,0,1,2.9-.739h.527v5.819q-.325-.026-.623-.047c-.2-.013-.388-.02-.568-.02a3.664,3.664,0,0,0-2.6.8,3.307,3.307,0,0,0-.832,2.492v6.008Z" transform="translate(-214.693 -484.108)" fill="#fff"></path></g><path d="M306.368,492.852c0-18.379-26.222-33.277-58.567-33.277a93.6,93.6,0,0,0-30.609,4.913l1.155,1.642a94.5,94.5,0,0,1,28.97-4.376c32.345,0,58.567,14.9,58.567,33.276a19.306,19.306,0,0,1-.266,3.127A19.472,19.472,0,0,0,306.368,492.852Z" transform="translate(-126.368 -415.6)" fill="#fff"></path><path d="M306.109,500.891c0-16.187-23.1-29.31-51.587-29.31a83.05,83.05,0,0,0-25.842,3.961L229.7,477a83.9,83.9,0,0,1,24.393-3.5c28.491,0,51.588,13.123,51.588,29.311a16.957,16.957,0,0,1-.234,2.754A17.135,17.135,0,0,0,306.109,500.891Z" transform="translate(-132.832 -422.354)" fill="#fff"></path></g></symbol><symbol id="s-logo-color" width="300" height="124" viewBox="0 0 300 124"><g><path fill="#f96311" d="M80.876 99.894h2.484c-.03 2.875-.626 5.07-1.79 6.587-1.165 1.516-2.842 2.274-5.033 2.274-2.339 0-4.07-.965-5.195-2.894-1.125-1.93-1.688-4.905-1.688-8.931 0-4.202.557-7.242 1.671-9.123 1.113-1.88 2.911-2.82 5.394-2.82 2.07 0 3.667.6 4.79 1.801 1.123 1.201 1.685 2.91 1.685 5.124v.28h-2.442c0-1.548-.363-2.763-1.09-3.645-.725-.883-1.717-1.323-2.973-1.323-1.541 0-2.65.748-3.327 2.247-.678 1.499-1.016 3.986-1.016 7.465 0 3.4.35 5.82 1.05 7.257.7 1.441 1.853 2.16 3.46 2.16 1.29 0 2.283-.529 2.977-1.585.695-1.057 1.043-2.564 1.043-4.52z"></path></g><g><path fill="#f96311" d="M90.475 99.755c0-2.526.263-4.3.79-5.324.525-1.024 1.403-1.535 2.632-1.535 1.221 0 2.094.516 2.62 1.55.527 1.033.79 2.802.79 5.309 0 2.486-.263 4.256-.79 5.31-.526 1.051-1.399 1.578-2.62 1.578-1.239 0-2.119-.516-2.64-1.55-.522-1.032-.782-2.812-.782-5.338zm-1.096 6.775c.953 1.428 2.462 2.142 4.525 2.142 2.054 0 3.562-.718 4.525-2.157.963-1.437 1.445-3.693 1.445-6.765 0-3.072-.484-5.333-1.452-6.786-.968-1.453-2.474-2.18-4.518-2.18-2.015 0-3.511.734-4.489 2.202-.977 1.466-1.466 3.721-1.466 6.764 0 3.092.477 5.352 1.43 6.78z"></path></g><g><path fill="#f96311" d="M104.515 108.216V91.28h2.187v2.022c.463-.803 1.071-1.409 1.824-1.819.754-.411 1.638-.617 2.652-.617.955 0 1.746.211 2.372.632.625.42 1.056 1.032 1.292 1.833.502-.82 1.117-1.438 1.845-1.848.728-.411 1.585-.617 2.568-.617 1.378 0 2.433.358 3.166 1.073.733.715 1.1 1.745 1.1 3.088v13.188h-2.443V96.5c0-1.374-.178-2.305-.533-2.791-.354-.487-.975-.73-1.861-.73-1.015 0-1.843.32-2.484.958-.64.639-.96 1.463-.96 2.475v11.804h-2.444V96.412c0-1.247-.19-2.132-.57-2.652-.38-.52-1.008-.781-1.885-.781-1.036 0-1.88.31-2.53.929-.652.618-.977 1.413-.977 2.387v11.92z"></path></g><g><path fill="#f96311" d="M128.521 108.216V91.28h2.187v2.022c.462-.803 1.07-1.409 1.824-1.819.754-.411 1.637-.617 2.652-.617.955 0 1.745.211 2.37.632.626.42 1.057 1.032 1.294 1.833.501-.82 1.116-1.438 1.844-1.848.728-.411 1.585-.617 2.568-.617 1.379 0 2.433.358 3.167 1.073.732.715 1.1 1.745 1.1 3.088v13.188h-2.443V96.5c0-1.374-.179-2.305-.534-2.791-.354-.487-.975-.73-1.861-.73-1.015 0-1.843.32-2.484.958-.64.639-.96 1.463-.96 2.475v11.804h-2.443V96.412c0-1.247-.19-2.132-.57-2.652-.38-.52-1.009-.781-1.886-.781-1.036 0-1.879.31-2.53.929-.65.618-.976 1.413-.976 2.387v11.92z"></path></g><g><path fill="#f96311" d="M160.724 108.216v-2.201c-.335.852-.866 1.508-1.596 1.967-.731.459-1.606.69-2.626.69-1.411 0-2.441-.348-3.089-1.043-.646-.696-.97-1.803-.97-3.322V91.281h2.484v13.086c0 .696.174 1.237.52 1.62.348.381.834.573 1.46.573 1.135 0 2.02-.353 2.657-1.06.635-.706.953-1.698.953-2.973V91.28h2.402v16.935z"></path></g><g><path fill="#f96311" d="M168.213 108.216V91.28h2.238v2.092c.41-.821.967-1.437 1.672-1.848.703-.41 1.56-.617 2.568-.617 1.486 0 2.544.378 3.175 1.132.63.754.946 2.053.946 3.896v12.28h-2.402V95.758c0-.922-.194-1.609-.583-2.06-.39-.452-.983-.678-1.78-.678-1.053 0-1.888.334-2.506 1.001-.619.669-.926 1.57-.926 2.71v11.485z"></path></g><g><path fill="#f96311" d="M183.857 108.216V91.28h2.443v16.935zm0-19.585v-3.105h2.443v3.105z"></path></g><g><path fill="#f96311" d="M199.613 102.254h2.319c0 2.046-.473 3.628-1.417 4.744-.943 1.116-2.275 1.674-3.996 1.674-1.888 0-3.286-.74-4.196-2.222-.91-1.48-1.364-3.756-1.364-6.826 0-2.952.472-5.157 1.417-6.614.944-1.456 2.376-2.184 4.295-2.184 1.583 0 2.836.482 3.756 1.45.92.966 1.38 2.283 1.38 3.95v.355h-2.319c-.05-1.19-.305-2.094-.767-2.713-.462-.62-1.117-.931-1.963-.931-1.16 0-1.99.513-2.487 1.54-.497 1.026-.745 2.77-.745 5.234 0 2.494.25 4.26.753 5.296.502 1.035 1.34 1.553 2.513 1.553.885 0 1.57-.368 2.052-1.102.483-.735.738-1.803.769-3.204z"></path></g><g><path fill="#f96311" d="M214.037 102.398c0 1.256-.29 2.258-.873 3.002-.582.746-1.362 1.119-2.34 1.119-.675 0-1.2-.23-1.57-.693-.372-.462-.557-1.115-.557-1.96 0-.943.165-1.656.498-2.137.332-.481 1.045-.914 2.14-1.297.05-.02.128-.048.235-.087 1.273-.457 2.096-.89 2.467-1.298zm3.754 4.02a.121.121 0 0 1-.06.016c-.148.03-.257.043-.326.043-.355 0-.613-.095-.77-.288-.158-.192-.238-.51-.238-.953v-9.895c0-1.577-.37-2.732-1.11-3.46-.743-.73-1.919-1.097-3.529-1.097-1.719 0-2.976.398-3.771 1.191-.796.794-1.207 2.053-1.237 3.778h2.236v-.293c0-.911.205-1.586.617-2.027.411-.44 1.038-.661 1.88-.661.871 0 1.505.159 1.9.478.397.318.596.824.596 1.519v1.555c0 .773-.862 1.447-2.585 2.023l-.044.015c-2.102.707-3.471 1.444-4.104 2.21-.636.765-.951 1.88-.951 3.343 0 1.494.34 2.653 1.023 3.478.68.825 1.637 1.237 2.863 1.237.942 0 1.756-.232 2.443-.692.688-.462 1.213-1.127 1.576-1.993.03.778.236 1.38.621 1.802.383.424.91.635 1.58.635.188 0 .392-.011.614-.034.221-.024.485-.06.79-.103z"></path></g><g><path fill="#f96311" d="M224.433 104.713c0 .707.128 1.171.382 1.392.256.22.862.331 1.821.331.128 0 .234-.002.318-.007.082-.006.153-.013.213-.023l.013 2.07c-.147.01-.343.019-.588.027-.6.03-.987.044-1.163.044-1.12 0-1.952-.223-2.497-.667-.545-.445-.818-1.118-.818-2.019V93.227h-2.36v-1.946h2.36v-4.513h2.319v4.513h2.747v1.946h-2.747z"></path></g><g><path fill="#f96311" d="M230.628 108.216V91.28h2.444v16.935zm0-19.585v-3.105h2.444v3.105z"></path></g><g><path fill="#f96311" d="M240.214 99.755c0-2.526.263-4.3.789-5.324.527-1.024 1.405-1.535 2.635-1.535 1.22 0 2.092.516 2.619 1.55.526 1.033.79 2.802.79 5.309 0 2.486-.264 4.256-.79 5.31-.527 1.051-1.4 1.578-2.62 1.578-1.24 0-2.12-.516-2.64-1.55-.522-1.032-.783-2.812-.783-5.338zm-2.525-.005c0 3.092.476 5.352 1.43 6.78.953 1.428 2.461 2.142 4.526 2.142 2.052 0 3.56-.718 4.524-2.157.962-1.437 1.445-3.693 1.445-6.765 0-3.072-.485-5.333-1.453-6.786-.968-1.453-2.474-2.18-4.516-2.18-2.016 0-3.512.734-4.49 2.202-.978 1.466-1.466 3.721-1.466 6.764z"></path></g><g><path fill="#f96311" d="M254.254 108.216V91.28h2.239v2.092c.41-.821.968-1.437 1.671-1.848.705-.41 1.56-.617 2.569-.617 1.486 0 2.544.378 3.175 1.132.63.754.946 2.053.946 3.896v12.28h-2.402V95.758c0-.922-.194-1.609-.584-2.06-.389-.452-.983-.678-1.78-.678-1.053 0-1.887.334-2.504 1.001-.62.669-.928 1.57-.928 2.71v11.485z"></path></g><g><path fill="#f96311" d="M269.486 103.123h2.329a4.662 4.662 0 0 0-.052.574c0 .921.261 1.62.785 2.101.524.481 1.284.72 2.283.72.91 0 1.626-.244 2.15-.735.523-.491.786-1.159.786-2.003 0-1.335-1.027-2.356-3.078-3.063a.259.259 0 0 0-.06-.015c-2.048-.719-3.376-1.432-3.983-2.14-.608-.708-.913-1.736-.913-3.083 0-1.477.434-2.628 1.302-3.454.867-.828 2.076-1.24 3.625-1.24 1.646 0 2.886.396 3.72 1.187.833.793 1.25 1.962 1.25 3.507v.233h-2.237c-.048-1.01-.28-1.745-.693-2.207-.415-.461-1.06-.691-1.937-.691-.926 0-1.623.217-2.09.65-.47.435-.704 1.08-.704 1.938 0 .38.063.722.185 1.025.123.303.303.546.539.731.433.374 1.294.767 2.582 1.18.688.216 1.218.398 1.593.545 1.17.453 2.005 1.025 2.506 1.718.502.693.753 1.609.753 2.749 0 1.7-.487 3.012-1.462 3.936-.973.924-2.36 1.386-4.16 1.386-1.654 0-2.904-.44-3.75-1.317-.847-.879-1.27-2.17-1.27-3.88z"></path></g><g><path fill="#e3e3e2" d="M64.074 86.313a2.3 2.3 0 0 0-1.592.555l-30.64 26.535 15.767-37.34a2.303 2.303 0 0 0-.932-2.87L11.972 52.25l40.385 3.457a2.305 2.305 0 0 0 2.44-1.774s6.293-27.02 9.192-39.476c1.712 7.346 4.602 19.757 6.685 28.705l4.722-.051L66.236 3.77a2.305 2.305 0 0 0-4.49 0L50.76 50.944l-48.26-4.13a2.306 2.306 0 0 0-1.387 4.27l41.471 25.024-18.841 44.622a2.303 2.303 0 0 0 .769 2.762c.866.628 2.053.578 2.863-.123L63.99 91.66c.025.02.055.047.084.072z"></path></g><g><path fill="url(#azq1a)" d="M76.153 38.615L66.016 9.465 55.2 48.553l-45.956.663L45.74 72.403l-18.248 45.05 39.199-31.137z"></path></g><g><path fill="#f96311" d="M66.061 84.326a2.3 2.3 0 0 0-1.592.555l-30.64 26.534 15.767-37.34a2.303 2.303 0 0 0-.932-2.87L13.96 50.263c12.742 1.092 40.385 3.457 40.385 3.457a2.305 2.305 0 0 0 2.442-1.774l9.192-39.477 6.684 28.706 4.722-.05-9.161-39.343a2.306 2.306 0 0 0-4.49 0L52.748 48.957l-48.26-4.13a2.306 2.306 0 0 0-1.388 4.27L44.573 74.12 25.73 118.742a2.303 2.303 0 0 0 .769 2.761c.866.63 2.054.58 2.863-.121L65.98 89.673l.082.072z"></path></g><g><g><path fill="url(#azq1b)" d="M68.718 71.277h12.339c.336 1.444.946 2.481 1.832 3.113.885.63 2.205.945 3.958.945 1.468 0 2.624-.254 3.465-.767.841-.513 1.262-1.218 1.262-2.118 0-1.435-1.771-2.604-5.308-3.503a247.16 247.16 0 0 0-1.627-.404c-2.909-.749-5.225-1.43-6.947-2.047-1.722-.616-2.976-1.19-3.762-1.726-1.516-1.088-2.654-2.39-3.413-3.906-.758-1.517-1.137-3.247-1.137-5.193 0-3.906 1.47-6.975 4.417-9.205 2.943-2.23 6.993-3.345 12.15-3.345 5.068 0 9.056 1.065 11.964 3.192 2.91 2.127 4.55 5.177 4.925 9.147H90.828c-.196-1.14-.71-1.991-1.54-2.553-.831-.562-2.015-.843-3.55-.843-1.36 0-2.368.222-3.028.664-.66.443-.991 1.114-.991 2.016 0 1.293 1.733 2.373 5.198 3.238.302.089.535.151.696.186.5.126 1.257.313 2.275.563 4.586 1.163 7.583 2.218 8.993 3.165 1.748 1.163 3.024 2.486 3.827 3.97.802 1.484 1.205 3.236 1.205 5.256 0 4.363-1.52 7.716-4.56 10.058-3.04 2.342-7.395 3.513-13.065 3.513-5.225 0-9.366-1.171-12.424-3.515-3.057-2.343-4.773-5.644-5.146-9.9z"></path><path fill="none" stroke="#1b137c" stroke-miterlimit="20" stroke-width=".76" d="M68.718 71.277v0h12.339c.336 1.444.946 2.481 1.832 3.113.885.63 2.205.945 3.958.945 1.468 0 2.624-.254 3.465-.767.841-.513 1.262-1.218 1.262-2.118 0-1.435-1.771-2.604-5.308-3.503a247.16 247.16 0 0 0-1.627-.404c-2.909-.749-5.225-1.43-6.947-2.047-1.722-.616-2.976-1.19-3.762-1.726-1.516-1.088-2.654-2.39-3.413-3.906-.758-1.517-1.137-3.247-1.137-5.193 0-3.906 1.47-6.975 4.417-9.205 2.943-2.23 6.993-3.345 12.15-3.345 5.068 0 9.056 1.065 11.964 3.192 2.91 2.127 4.55 5.177 4.925 9.147H90.828c-.196-1.14-.71-1.991-1.54-2.553-.831-.562-2.015-.843-3.55-.843-1.36 0-2.368.222-3.028.664-.66.443-.991 1.114-.991 2.016 0 1.293 1.733 2.373 5.198 3.238.302.089.535.151.696.186.5.126 1.257.313 2.275.563 4.586 1.163 7.583 2.218 8.993 3.165 1.748 1.163 3.024 2.486 3.827 3.97.802 1.484 1.205 3.236 1.205 5.256 0 4.363-1.52 7.716-4.56 10.058-3.04 2.342-7.395 3.513-13.065 3.513-5.225 0-9.366-1.171-12.424-3.515-3.057-2.343-4.773-5.644-5.146-9.9z"></path></g><g><path fill="url(#azq1c)" d="M118.543 72.837c0 .978.286 1.666.858 2.064.571.4 1.59.6 3.055.6.43 0 .755-.004.977-.014.224-.007.443-.021.658-.04v8.391c-1.428.09-2.727.158-3.897.207-1.17.045-2.264.068-3.28.068-3.678 0-6.245-.617-7.7-1.851-1.455-1.235-2.182-3.399-2.182-6.493V61.257h-4.058V54.55h4.058v-9.027h11.51v9.027h5.442v6.708h-5.441z"></path><path fill="none" stroke="#1b137c" stroke-miterlimit="20" stroke-width=".76" d="M118.543 72.837c0 .978.286 1.666.858 2.064.571.4 1.59.6 3.055.6.43 0 .755-.004.977-.014.224-.007.443-.021.658-.04v8.391c-1.428.09-2.727.158-3.897.207-1.17.045-2.264.068-3.28.068-3.678 0-6.245-.617-7.7-1.851-1.455-1.235-2.182-3.399-2.182-6.493V61.257v0h-4.058v0-6.708 0h4.058v0-9.027 0h11.51v9.027h5.442v6.708h-5.441v0z"></path></g><g><path fill="url(#azq1d)" d="M145.631 70.698zm0 0c.035.16.057.341.066.546.01.204.014.51.014.92 0 1.938-.443 3.351-1.329 4.24-.886.888-2.296 1.332-4.23 1.332-1.056 0-1.87-.23-2.442-.693-.574-.462-.86-1.101-.86-1.919 0-1.279 1.45-2.302 4.35-3.066 1.843-.48 3.32-.933 4.431-1.36zm12.683 12.918v-.823a2.637 2.637 0 0 1-.936-1.024 3.07 3.07 0 0 1-.322-1.425v-16.21c0-2.185-.276-3.863-.829-5.035-.554-1.173-1.516-2.225-2.891-3.156-1.124-.751-2.699-1.352-4.723-1.8-2.024-.447-4.232-.67-6.623-.67-5.086 0-8.939.837-11.56 2.51-2.624 1.676-3.961 4.15-4.014 7.428h11.262c.108-.984.484-1.714 1.129-2.188.644-.473 1.565-.711 2.766-.711 1.451 0 2.511.193 3.183.577.672.384 1.008.995 1.008 1.834 0 1.502-1.83 2.449-5.49 2.842a64.465 64.465 0 0 0-2.517.295c-4.91.625-8.248 1.624-10.015 2.998-1.768 1.375-2.651 3.498-2.651 6.372 0 2.945.896 5.226 2.69 6.84 1.794 1.614 4.334 2.423 7.62 2.423 2.143 0 4.07-.314 5.784-.941 1.713-.627 3.311-1.594 4.794-2.902l.723 2.766z"></path><path fill="none" stroke="#1b137c" stroke-miterlimit="20" stroke-width=".76" d="M145.631 70.698s0 0 0 0 0 0 0 0zm0 0c.035.16.057.341.066.546.01.204.014.51.014.92 0 1.938-.443 3.351-1.329 4.24-.886.888-2.296 1.332-4.23 1.332-1.056 0-1.87-.23-2.442-.693-.574-.462-.86-1.101-.86-1.919 0-1.279 1.45-2.302 4.35-3.066 1.843-.48 3.32-.933 4.431-1.36zm12.683 12.918v-.823a2.637 2.637 0 0 1-.936-1.024 3.07 3.07 0 0 1-.322-1.425v-16.21c0-2.185-.276-3.863-.829-5.035-.554-1.173-1.516-2.225-2.891-3.156-1.124-.751-2.699-1.352-4.723-1.8-2.024-.447-4.232-.67-6.623-.67-5.086 0-8.939.837-11.56 2.51-2.624 1.676-3.961 4.15-4.014 7.428h11.262c.108-.984.484-1.714 1.129-2.188.644-.473 1.565-.711 2.766-.711 1.451 0 2.511.193 3.183.577.672.384 1.008.995 1.008 1.834 0 1.502-1.83 2.449-5.49 2.842a64.465 64.465 0 0 0-2.517.295c-4.91.625-8.248 1.624-10.015 2.998-1.768 1.375-2.651 3.498-2.651 6.372 0 2.945.896 5.226 2.69 6.84 1.794 1.614 4.334 2.423 7.62 2.423 2.143 0 4.07-.314 5.784-.941 1.713-.627 3.311-1.594 4.794-2.902l.723 2.766z"></path></g><g><path fill="url(#azq1e)" d="M161.036 83.616V54.55h10.659v5.287c.769-2.119 1.876-3.668 3.317-4.647 1.441-.978 3.361-1.468 5.762-1.468h1.048v11.561c-.43-.035-.843-.066-1.237-.093-.394-.026-.77-.04-1.129-.04-2.347 0-4.07.527-5.174 1.58-1.102 1.053-1.652 2.703-1.652 4.95v11.937z"></path><path fill="none" stroke="#1b137c" stroke-miterlimit="20" stroke-width=".76" d="M161.036 83.616v0V54.55v0h10.659v5.287c.769-2.119 1.876-3.668 3.317-4.647 1.441-.978 3.361-1.468 5.762-1.468h1.048v11.561c-.43-.035-.843-.066-1.237-.093-.394-.026-.77-.04-1.129-.04-2.347 0-4.07.527-5.174 1.58-1.102 1.053-1.652 2.703-1.652 4.95v11.937z"></path></g></g><g><path fill="#cdcfcf" d="M300 95.205c0-36.514-52.097-66.114-116.359-66.114-22.298 0-43.114 3.578-60.812 9.76l2.295 3.264c16.98-5.511 36.6-8.696 57.556-8.696 64.261 0 116.358 29.6 116.358 66.112 0 2.096-.192 4.166-.527 6.213.969-3.434 1.49-6.952 1.49-10.54z"></path></g><g><path fill="#cdcfcf" d="M286.645 97.756c0-32.16-45.888-58.231-102.491-58.231-18.726 0-36.238 2.884-51.342 7.869l2.033 2.887c14.433-4.417 30.919-6.945 48.462-6.945 56.605 0 102.492 26.071 102.492 58.232 0 1.847-.169 3.67-.465 5.473.854-3.025 1.311-6.124 1.311-9.285z"></path></g><g><path fill="#1b2b88" d="M300 93.879c0-36.513-52.097-66.113-116.359-66.113-22.298 0-43.114 3.578-60.812 9.76l2.295 3.264c16.98-5.511 36.6-8.696 57.556-8.696 64.261 0 116.358 29.6 116.358 66.112 0 2.096-.192 4.166-.527 6.212.969-3.433 1.49-6.951 1.49-10.54z"></path></g><g><path fill="#f96311" d="M286.645 96.432c0-32.16-45.888-58.233-102.491-58.233-18.726 0-36.238 2.885-51.342 7.87l2.033 2.887c14.433-4.416 30.919-6.945 48.462-6.945 56.605 0 102.492 26.072 102.492 58.233 0 1.847-.169 3.669-.465 5.471.854-3.023 1.311-6.122 1.311-9.283z"></path></g></symbol><symbol id="s-icon-remote" viewBox="0 0 90 90"><path fill="#222" d="M84.5,81H74V33h8.66a1,1,0,0,0,1-1,1,1,0,0,0-.45-.84L45.55,6.36a1,1,0,0,0-1.1,0L6.79,31.16A1,1,0,0,0,7.34,33H16V81H5.5a1.5,1.5,0,0,0,0,3h12A1.5,1.5,0,0,0,19,82.5v-51A1.5,1.5,0,0,0,17.5,30H14L45,9.59,76,30H72.5A1.5,1.5,0,0,0,71,31.5v51A1.5,1.5,0,0,0,72.5,84h12a1.5,1.5,0,0,0,0-3Z"></path><path fill="#23d152" d="M45,29a7,7,0,1,1-7,7,7,7,0,0,1,7-7m0-3A10,10,0,1,0,55,36,10,10,0,0,0,45,26Z"></path><path fill="#23d152" d="M65.5,81H58V65.5A1.5,1.5,0,0,0,56.5,64h-23A1.5,1.5,0,0,0,32,65.5V81H24.5a1.5,1.5,0,0,0,0,3h41a1.5,1.5,0,0,0,0-3ZM35,81V67H55V81Z"></path><path fill="#222" d="M79.5,77A1.5,1.5,0,0,1,78,75.5v-37a1.5,1.5,0,0,1,3,0v37A1.5,1.5,0,0,1,79.5,77Z"></path><path fill="#222" d="M10.5,77A1.5,1.5,0,0,1,9,75.5v-37a1.5,1.5,0,0,1,3,0v37A1.5,1.5,0,0,1,10.5,77Z"></path><path fill="#23d152" d="M33,53H57a5,5,0,0,1,5,5V72.5A1.5,1.5,0,0,0,63.5,74h0A1.5,1.5,0,0,0,65,72.5V58a8,8,0,0,0-8-8H33a8,8,0,0,0-8,8V72.5A1.5,1.5,0,0,0,26.5,74h0A1.5,1.5,0,0,0,28,72.5V58A5,5,0,0,1,33,53Z"></path></symbol><symbol id="s-icon-movement" viewBox="0 0 86 86"><path fill="#23d152" d="M43,0A43,43,0,1,0,86,43,43,43,0,0,0,43,0ZM83,43A39.84,39.84,0,0,1,72.31,70.18L15.82,13.69A40,40,0,0,1,83,43ZM3,43A39.84,39.84,0,0,1,13.69,15.82L70.18,72.31A40,40,0,0,1,3,43Z"></path><path fill="#222" d="M65.09,33h-1a15.23,15.23,0,0,1-12.23-6.5A11,11,0,0,0,43,22H28.36l3,3H43a8,8,0,0,1,6.46,3.28A18.16,18.16,0,0,0,64.11,36h1A9.76,9.76,0,0,1,75,45.32,9.5,9.5,0,0,1,65.68,55H61.36l3,3H65.5A12.5,12.5,0,0,0,78,45.5v-.23A12.77,12.77,0,0,0,65.09,33Z"></path><path fill="#222" d="M48.64,55H8c.35,1,.74,2,1.18,3H51.64Z"></path><path fill="#222" d="M15.64,22h-3.1c-.67,1-1.29,2-1.87,3h8Z"></path><path fill="#222" d="M10.67,61c.58,1,1.2,2,1.87,3h45.1l-3-3Z"></path><path fill="#222" d="M12,30.5v7h0A1.5,1.5,0,0,0,13.5,39h11A1.5,1.5,0,0,0,26,37.5h0V32.36L22.64,29H13.5A1.5,1.5,0,0,0,12,30.5ZM15,32h8v4H15Z"></path><path fill="#222" d="M44.72,38.36A1.47,1.47,0,0,0,45,37.5v-7h0A1.5,1.5,0,0,0,43.5,29H35.36l3,3H42v3.64Z"></path></symbol><symbol id="s-icon-guideline" viewBox="0 0 39 32"><path d="M23,7.5A1.5,1.5,0,0,0,25.5,9h6a1.5,1.5,0,0,0,0-3h-6A1.5,1.5,0,0,0,24,7.5Z"></path><path d="M31.5,11h-6a1.5,1.5,0,0,0,0,3h6a1.5,1.5,0,0,0,0-3Z"></path><path d="M13.5,6h-6a1.5,1.5,0,0,0,0,3h6a1.5,1.5,0,0,0,0-3Z"></path><path d="M13.5,11h-6a1.5,1.5,0,0,0,0,3h6a1.5,1.5,0,0,0,0-3Z"></path><path d="M37.5,0H27a9,9,0,0,0-7.51,4,8.78,8.78,0,0,0-7.31-4H1.5A1.5,1.5,0,0,0,0,1.5V23a1.5,1.5,0,0,0,1.5,1.5H12.18a5.92,5.92,0,0,1,5.82,6,1.5,1.5,0,0,0,3,0v-.18a5.92,5.92,0,0,1,6-5.82H37.5A1.5,1.5,0,0,0,39,23V1.5A1.5,1.5,0,0,0,37.5,0ZM18,23.76a8.68,8.68,0,0,0-5.82-2.26H3V3h9.18A5.92,5.92,0,0,1,18,9ZM36,21.5H27a9,9,0,0,0-6,2.27V8.82A5.92,5.92,0,0,1,27,3h9Z"></path></symbol><symbol id="s-icon-external" viewBox="0 0 20 14"><path fill="#222" d="M13,14H3a3,3,0,0,1-3-3V7A3,3,0,0,1,3,4H13a3,3,0,0,1,3,3v4A3,3,0,0,1,13,14ZM3,6A1,1,0,0,0,2,7v4a1,1,0,0,0,1,1H13a1,1,0,0,0,1-1V7a1,1,0,0,0-1-1Z"></path><path fill="#222" d="M13,0H3A1,1,0,0,0,2,1H2A1,1,0,0,0,3,2H13a5,5,0,0,1,5,5v4a1,1,0,0,0,1,1h0a1,1,0,0,0,1-1V7A7,7,0,0,0,13,0Z"></path></symbol><symbol id="s-icon-distance" viewBox="0 0 90 90"><path fill="#222" d="M14,23a7,7,0,1,0-7-7A7,7,0,0,0,14,23Zm0-11a4,4,0,1,1-4,4A4,4,0,0,1,14,12Z"></path><path fill="#222" d="M76,23a7,7,0,1,0-7-7A7,7,0,0,0,76,23Zm0-11a4,4,0,1,1-4,4A4,4,0,0,1,76,12Z"></path><path fill="#222" d="M3.5,56A1.5,1.5,0,0,0,5,54.5V34a5,5,0,0,1,5-5h8a5,5,0,0,1,5,5V54.5a1.5,1.5,0,0,0,3,0V34a8,8,0,0,0-8-8H10a8,8,0,0,0-8,8V54.5A1.5,1.5,0,0,0,3.5,56Z"></path><path fill="#222" d="M80,26H72a8,8,0,0,0-8,8V54.5a1.5,1.5,0,0,0,3,0V34a5,5,0,0,1,5-5h8a5,5,0,0,1,5,5V54.5a1.5,1.5,0,0,0,3,0V34A8,8,0,0,0,80,26Z"></path><path fill="#23d152" d="M30.5,29h29a1.5,1.5,0,0,0,0-3h-29a1.5,1.5,0,0,0,0,3Z"></path><path fill="#23d152" d="M30.5,62h29a1.5,1.5,0,0,0,0-3h-29a1.5,1.5,0,0,0,0,3Z"></path><path fill="#23d152" d="M41.28,42.3a3.44,3.44,0,0,0,.24-.77,7,7,0,0,0,.1-.8c0-.28,0-.63,0-1a6,6,0,0,0-.2-1.63,4,4,0,0,0-.63-1.37,3.18,3.18,0,0,0-1.14-.95A3.74,3.74,0,0,0,38,35.39a3.61,3.61,0,0,0-1.44.3,3.66,3.66,0,0,0-1.15.8,3.76,3.76,0,0,0-.79,1.18,3.7,3.7,0,0,0-.29,1.44v1.34H36.8V39.06a1.1,1.1,0,0,1,1-1.22.89.89,0,0,1,.23,0,1.09,1.09,0,0,1,.7.18,1,1,0,0,1,.36.44,1.59,1.59,0,0,1,.13.61c0,.23,0,.45,0,.66,0,.47,0,.86,0,1.17A3.1,3.1,0,0,1,38.77,42l-4.41,8.33v2.3h7.3V50.17H37.24l3.6-6.94C41,42.86,41.17,42.55,41.28,42.3Z"></path><path fill="#23d152" d="M55.66,52.62V43.28a3.62,3.62,0,0,0-.24-1.38,2.79,2.79,0,0,0-.63-.92,2.23,2.23,0,0,0-.86-.52A3.31,3.31,0,0,0,53,40.3a2.82,2.82,0,0,0-1.53.36,5,5,0,0,0-1,.87,4.07,4.07,0,0,0-.87-.84,2.2,2.2,0,0,0-1.32-.39,2.37,2.37,0,0,0-1.38.38,3.43,3.43,0,0,0-.92.94h-.05V40.45H43.46V52.62h2.45V44.43a2.48,2.48,0,0,1,.27-1.25,1,1,0,0,1,1-.43,1.06,1.06,0,0,1,.88.39,1.58,1.58,0,0,1,.32,1v8.43h2.44V44.43a2.48,2.48,0,0,1,.27-1.25,1,1,0,0,1,1-.43,1.06,1.06,0,0,1,.89.39,1.63,1.63,0,0,1,.31,1v8.43Z"></path><path fill="#222" d="M9.5,51A1.5,1.5,0,0,0,8,52.5V78H3.5a1.5,1.5,0,0,0,0,3h6A1.5,1.5,0,0,0,11,79.5v-27A1.5,1.5,0,0,0,9.5,51Z"></path><path fill="#222" d="M71.5,51A1.5,1.5,0,0,0,70,52.5V78H20V52.5a1.5,1.5,0,0,0-3,0v27A1.5,1.5,0,0,0,18.5,81h53A1.5,1.5,0,0,0,73,79.5v-27A1.5,1.5,0,0,0,71.5,51Z"></path><path fill="#222" d="M86.5,78H82V52.5a1.5,1.5,0,0,0-3,0v27A1.5,1.5,0,0,0,80.5,81h6a1.5,1.5,0,0,0,0-3Z"></path></symbol><symbol id="s-icon-arrow" viewBox="0 0 8.16 13.32"><path fill="#222" d="M1.5,13.32a1.47,1.47,0,0,1-1.06-.44,1.49,1.49,0,0,1,0-2.12l4.1-4.1L.44,2.56A1.5,1.5,0,0,1,2.56.44L7.72,5.6a1.49,1.49,0,0,1,0,2.12L2.56,12.88A1.47,1.47,0,0,1,1.5,13.32Z"></path></symbol></svg>